name Walk7.mot
datacolumns 19
datarows 15
range 1.50300000 1.51700000
endheader

                time	   L_ground_force_vx	   L_ground_force_vy	   L_ground_force_vz	   L_ground_force_px	   L_ground_force_py	   L_ground_force_pz	   R_ground_force_vx	   R_ground_force_vy	   R_ground_force_vz	   R_ground_force_px	   R_ground_force_py	   R_ground_force_pz	   L_ground_torque_x	   L_ground_torque_y	   L_ground_torque_z	   R_ground_torque_x	   R_ground_torque_y	   R_ground_torque_z	
          1.50300000	        -22.22947279	        425.75722364	        -33.62847622	          0.47293358	          0.00000000	          0.08471308	          0.00000000	          0.00000000	          0.00000000	          0.00000000	          0.00000000	          0.00000000	          0.00000000	          2.76220641	          0.00000000	          0.00000000	          0.00000000	          0.00000000	
          1.50400000	        -22.04837779	        424.92827245	        -33.34931329	          0.47379086	          0.00000000	          0.08482643	          0.00000000	          0.00000000	          0.00000000	          0.00000000	          0.00000000	          0.00000000	          0.00000000	          2.73691611	          0.00000000	          0.00000000	          0.00000000	          0.00000000	
          1.50500000	        -21.87080671	        424.05818368	        -33.04284696	          0.47464533	          0.00000000	          0.08493273	          0.00000000	          0.00000000	          0.00000000	          0.00000000	          0.00000000	          0.00000000	          0.00000000	          2.70531061	          0.00000000	          0.00000000	          0.00000000	          0.00000000	
          1.50600000	        -21.69056850	        423.07968672	        -32.71404090	          0.47543530	          0.00000000	          0.08496886	          0.00000000	          0.00000000	          0.00000000	          0.00000000	          0.00000000	          0.00000000	          0.00000000	          2.66439149	          0.00000000	          0.00000000	          0.00000000	          0.00000000	
          1.50700000	        -21.50049750	        422.04264480	        -32.37932981	          0.47615823	          0.00000000	          0.08490838	          0.00000000	          0.00000000	          0.00000000	          0.00000000	          0.00000000	          0.00000000	          0.00000000	          2.61897627	          0.00000000	          0.00000000	          0.00000000	          0.00000000	
          1.50800000	        -21.30064934	        421.05216194	        -32.05734471	          0.47680639	          0.00000000	          0.08476814	          0.00000000	          0.00000000	          0.00000000	          0.00000000	          0.00000000	          0.00000000	          0.00000000	          2.57714983	          0.00000000	          0.00000000	          0.00000000	          0.00000000	
          1.50900000	        -21.09342564	        420.19209913	        -31.75957182	          0.47734798	          0.00000000	          0.08457526	          0.00000000	          0.00000000	          0.00000000	          0.00000000	          0.00000000	          0.00000000	          0.00000000	          2.54375892	          0.00000000	          0.00000000	          0.00000000	          0.00000000	
          1.51000000	        -20.87610266	        419.49976944	        -31.48213942	          0.47778385	          0.00000000	          0.08436974	          0.00000000	          0.00000000	          0.00000000	          0.00000000	          0.00000000	          0.00000000	          0.00000000	          2.51764199	          0.00000000	          0.00000000	          0.00000000	          0.00000000	
          1.51100000	        -20.64151144	        418.96182370	        -31.20748636	          0.47814822	          0.00000000	          0.08420880	          0.00000000	          0.00000000	          0.00000000	          0.00000000	          0.00000000	          0.00000000	          0.00000000	          2.49352436	          0.00000000	          0.00000000	          0.00000000	          0.00000000	
          1.51200000	        -20.38409045	        418.51988018	        -30.91736179	          0.47845825	          0.00000000	          0.08413413	          0.00000000	          0.00000000	          0.00000000	          0.00000000	          0.00000000	          0.00000000	          0.00000000	          2.46512895	          0.00000000	          0.00000000	          0.00000000	          0.00000000	
          1.51300000	        -20.10564274	        418.11825934	        -30.60448150	          0.47871667	          0.00000000	          0.08415348	          0.00000000	          0.00000000	          0.00000000	          0.00000000	          0.00000000	          0.00000000	          0.00000000	          2.42794120	          0.00000000	          0.00000000	          0.00000000	          0.00000000	
          1.51400000	        -19.81532887	        417.73803662	        -30.27589065	          0.47895364	          0.00000000	          0.08424013	          0.00000000	          0.00000000	          0.00000000	          0.00000000	          0.00000000	          0.00000000	          0.00000000	          2.37992430	          0.00000000	          0.00000000	          0.00000000	          0.00000000	
          1.51500000	        -19.52357846	        417.37629643	        -29.94947813	          0.47924407	          0.00000000	          0.08433673	          0.00000000	          0.00000000	          0.00000000	          0.00000000	          0.00000000	          0.00000000	          0.00000000	          2.32089360	          0.00000000	          0.00000000	          0.00000000	          0.00000000	
          1.51600000	        -19.23615445	        417.03937050	        -29.64773499	          0.47969305	          0.00000000	          0.08438309	          0.00000000	          0.00000000	          0.00000000	          0.00000000	          0.00000000	          0.00000000	          0.00000000	          2.25388479	          0.00000000	          0.00000000	          0.00000000	          0.00000000	
          1.51700000	        -18.95436675	        416.75465971	        -29.38980897	          0.48036020	          0.00000000	          0.08434493	          0.00000000	          0.00000000	          0.00000000	          0.00000000	          0.00000000	          0.00000000	          0.00000000	          2.18509941	          0.00000000	          0.00000000	          0.00000000	          0.00000000	
